{"accessors":[{"bufferView":0,"componentType":5126,"count":8,"type":"VEC3","max":[0.5,0.5000000596046448,0.5000000596046448],"min":[-0.5,-0.5000000596046448,-0.5000000596046448]},{"bufferView":1,"componentType":5126,"count":8,"type":"VEC3","max":[0.0,0.0,1.0],"min":[-1.0,0.0,0.0]},{"bufferView":2,"componentType":5126,"count":8,"type":"VEC4","max":[0.0,0.0,0.0,-1.0],"min":[-1.0,0.0,-1.0,-1.0]},{"bufferView":3,"componentType":5126,"count":8,"type":"VEC2","max":[1.0,1.0],"min":[0.0,0.0]},{"bufferView":4,"componentType":5125,"count":12,"type":"SCALAR","max":[7.0],"min":[0.0]},{"bufferView":5,"componentType":5126,"count":8,"type":"VEC3","max":[0.5,1.0014042854309082,0.4999999701976776],"min":[-0.5,0.0014042258262634277,-0.5000001192092896]},{"bufferView":6,"componentType":5126,"count":8,"type":"VEC3","max":[0.0,0.0,1.0],"min":[-1.0,0.0,0.0]},{"bufferView":7,"componentType":5126,"count":8,"type":"VEC4","max":[0.0,0.0,0.0,-1.0],"min":[-1.0,0.0,-1.0,-1.0]},{"bufferView":8,"componentType":5126,"count":8,"type":"VEC2","max":[1.0,1.0],"min":[0.0,0.0]},{"bufferView":9,"componentType":5125,"count":12,"type":"SCALAR","max":[7.0],"min":[0.0]},{"bufferView":10,"componentType":5126,"count":38,"type":"VEC3","max":[0.18970061838626862,0.1868186742067337,0.11817017942667007],"min":[-0.189700648188591,-0.1868186742067337,0.0]},{"bufferView":11,"componentType":5126,"count":38,"type":"VEC3","max":[1.0,0.9848077297210693,0.0],"min":[-1.0,-0.9848078489303589,0.0]},{"bufferView":12,"componentType":5126,"count":38,"type":"VEC4","max":[0.9848077297210693,1.0,0.0,-1.0],"min":[-0.9848078489303589,-1.0,0.0,-1.0]},{"bufferView":13,"componentType":5126,"count":38,"type":"VEC2","max":[2.00980806350708,1.0071046352386475],"min":[0.0049013784155249596,-0.0022876178845763206]},{"bufferView":14,"componentType":5125,"count":108,"type":"SCALAR","max":[37.0],"min":[0.0]},{"bufferView":15,"componentType":5126,"count":4,"type":"VEC3","max":[0.5,0.5,3.0616168005906746e-17],"min":[-0.5,-0.5,-3.0616168005906746e-17]},{"bufferView":16,"componentType":5126,"count":4,"type":"VEC3","max":[0.0,0.0,-1.0],"min":[0.0,0.0,-1.0]},{"bufferView":17,"componentType":5126,"count":4,"type":"VEC4","max":[1.0,0.0,0.0,-1.0],"min":[1.0,0.0,0.0,-1.0]},{"bufferView":18,"componentType":5126,"count":4,"type":"VEC2","max":[1.0,1.0],"min":[0.0,0.0]},{"bufferView":19,"componentType":5125,"count":6,"type":"SCALAR","max":[3.0],"min":[0.0]},{"bufferView":20,"componentType":5126,"count":625,"type":"SCALAR","max":[20.80000114440918],"min":[0.0]},{"bufferView":21,"componentType":5126,"count":625,"type":"VEC3","max":[-0.04270000010728836,0.08389999717473984,0.03139999881386757],"min":[-0.04270000010728836,0.0,0.03139999881386757]},{"bufferView":22,"componentType":5126,"count":625,"type":"VEC4","max":[0.0,0.0,0.0,1.0],"min":[0.0,0.0,0.0,1.0]},{"bufferView":23,"componentType":5126,"count":625,"type":"VEC3","max":[0.010018237866461277,0.010018237866461277,0.010018237866461277],"min":[0.0,0.0,0.0]},{"bufferView":24,"componentType":5126,"count":625,"type":"SCALAR","max":[20.80000114440918],"min":[0.0]},{"bufferView":25,"componentType":5126,"count":625,"type":"VEC3","max":[-0.021400000900030136,0.08389999717473984,0.04960000142455101],"min":[-0.021400000900030136,0.0,0.04960000142455101]},{"bufferView":26,"componentType":5126,"count":625,"type":"VEC4","max":[0.0,0.0,0.0,1.0],"min":[0.0,0.0,0.0,1.0]},{"bufferView":27,"componentType":5126,"count":625,"type":"VEC3","max":[0.01001824252307415,0.01001824252307415,0.01001824252307415],"min":[0.0,0.0,0.0]},{"bufferView":28,"componentType":5126,"count":625,"type":"SCALAR","max":[20.80000114440918],"min":[0.0]},{"bufferView":29,"componentType":5126,"count":625,"type":"VEC3","max":[0.019899999722838402,0.08389999717473984,0.057500001043081284],"min":[0.019899999722838402,0.0,0.057500001043081284]},{"bufferView":30,"componentType":5126,"count":625,"type":"VEC4","max":[0.0,0.0,0.0,1.0],"min":[0.0,0.0,0.0,1.0]},{"bufferView":31,"componentType":5126,"count":625,"type":"VEC3","max":[0.01001760270446539,0.01001760270446539,0.01001760270446539],"min":[0.0,0.0,0.0]},{"bufferView":32,"componentType":5126,"count":625,"type":"SCALAR","max":[20.80000114440918],"min":[0.0]},{"bufferView":33,"componentType":5126,"count":625,"type":"VEC3","max":[0.046799998730421066,0.08389999717473984,0.032499998807907104],"min":[0.046799998730421066,0.0,0.032499998807907104]},{"bufferView":34,"componentType":5126,"count":625,"type":"VEC4","max":[0.0,0.0,0.0,1.0],"min":[0.0,0.0,0.0,1.0]},{"bufferView":35,"componentType":5126,"count":625,"type":"VEC3","max":[0.010019139386713505,0.010019139386713505,0.010019139386713505],"min":[0.0,0.0,0.0]},{"bufferView":36,"componentType":5126,"count":625,"type":"SCALAR","max":[20.80000114440918],"min":[0.0]},{"bufferView":37,"componentType":5126,"count":625,"type":"VEC3","max":[0.04280000180006027,0.08389999717473984,0.00800000037997961],"min":[0.04280000180006027,0.0,0.00800000037997961]},{"bufferView":38,"componentType":5126,"count":625,"type":"VEC4","max":[0.0,0.0,0.0,1.0],"min":[0.0,0.0,0.0,1.0]},{"bufferView":39,"componentType":5126,"count":625,"type":"VEC3","max":[0.01001913845539093,0.01001913845539093,0.01001913845539093],"min":[0.0,0.0,0.0]},{"bufferView":40,"componentType":5126,"count":625,"type":"SCALAR","max":[20.80000114440918],"min":[0.0]},{"bufferView":41,"componentType":5126,"count":625,"type":"VEC3","max":[0.03539999946951866,0.08389999717473984,-0.012199999764561653],"min":[0.03539999946951866,0.0,-0.012199999764561653]},{"bufferView":42,"componentType":5126,"count":625,"type":"VEC4","max":[0.0,0.0,0.0,1.0],"min":[0.0,0.0,0.0,1.0]},{"bufferView":43,"componentType":5126,"count":625,"type":"VEC3","max":[0.008999576792120934,0.008999576792120934,0.008999576792120934],"min":[0.0,0.0,0.0]},{"bufferView":44,"componentType":5126,"count":625,"type":"SCALAR","max":[20.80000114440918],"min":[0.0]},{"bufferView":45,"componentType":5126,"count":625,"type":"VEC3","max":[-0.0017000000225380063,0.08389999717473984,-0.026599999517202377],"min":[-0.0017000000225380063,0.0,-0.026599999517202377]},{"bufferView":46,"componentType":5126,"count":625,"type":"VEC4","max":[0.0,0.0,0.0,1.0],"min":[0.0,0.0,0.0,1.0]},{"bufferView":47,"componentType":5126,"count":625,"type":"VEC3","max":[0.010018306784331799,0.010018306784331799,0.010018306784331799],"min":[0.0,0.0,0.0]},{"bufferView":48,"componentType":5126,"count":625,"type":"SCALAR","max":[20.80000114440918],"min":[0.0]},{"bufferView":49,"componentType":5126,"count":625,"type":"VEC3","max":[0.01850000023841858,0.08389999717473984,-0.026599999517202377],"min":[0.01850000023841858,0.0,-0.026599999517202377]},{"bufferView":50,"componentType":5126,"count":625,"type":"VEC4","max":[0.0,0.0,0.0,1.0],"min":[0.0,0.0,0.0,1.0]},{"bufferView":51,"componentType":5126,"count":625,"type":"VEC3","max":[0.010018237866461277,0.010018237866461277,0.010018237866461277],"min":[0.0,0.0,0.0]},{"bufferView":52,"componentType":5126,"count":625,"type":"SCALAR","max":[20.80000114440918],"min":[0.0]},{"bufferView":53,"componentType":5126,"count":625,"type":"VEC3","max":[-0.015799999237060547,0.08389999717473984,-0.025299999862909317],"min":[-0.015799999237060547,0.0,-0.025299999862909317]},{"bufferView":54,"componentType":5126,"count":625,"type":"VEC4","max":[0.0,0.0,0.0,1.0],"min":[0.0,0.0,0.0,1.0]},{"bufferView":55,"componentType":5126,"count":625,"type":"VEC3","max":[0.010019139386713505,0.010019139386713505,0.010019139386713505],"min":[0.0,0.0,0.0]},{"bufferView":56,"componentType":5126,"count":625,"type":"SCALAR","max":[20.80000114440918],"min":[0.0]},{"bufferView":57,"componentType":5126,"count":625,"type":"VEC3","max":[-0.02969999983906746,0.08389999717473984,-0.017400000244379044],"min":[-0.02969999983906746,0.0,-0.017400000244379044]},{"bufferView":58,"componentType":5126,"count":625,"type":"VEC4","max":[0.0,0.0,0.0,1.0],"min":[0.0,0.0,0.0,1.0]},{"bufferView":59,"componentType":5126,"count":625,"type":"VEC3","max":[0.01001824252307415,0.01001824252307415,0.01001824252307415],"min":[0.0,0.0,0.0]},{"bufferView":60,"componentType":5126,"count":625,"type":"SCALAR","max":[20.80000114440918],"min":[0.0]},{"bufferView":61,"componentType":5126,"count":625,"type":"VEC3","max":[-0.04280000180006027,0.08389999717473984,-0.009600000455975533],"min":[-0.04280000180006027,0.0,-0.009600000455975533]},{"bufferView":62,"componentType":5126,"count":625,"type":"VEC4","max":[0.0,0.0,0.0,1.0],"min":[0.0,0.0,0.0,1.0]},{"bufferView":63,"componentType":5126,"count":625,"type":"VEC3","max":[0.01001913845539093,0.01001913845539093,0.01001913845539093],"min":[0.0,0.0,0.0]},{"bufferView":64,"componentType":5126,"count":625,"type":"SCALAR","max":[20.80000114440918],"min":[0.0]},{"bufferView":65,"componentType":5126,"count":625,"type":"VEC3","max":[-0.04470000043511391,0.08389999717473984,0.004900000058114529],"min":[-0.04470000043511391,0.0,0.004900000058114529]},{"bufferView":66,"componentType":5126,"count":625,"type":"VEC4","max":[0.0,0.0,0.0,1.0],"min":[0.0,0.0,0.0,1.0]},{"bufferView":67,"componentType":5126,"count":625,"type":"VEC3","max":[0.010018302127718925,0.010018302127718925,0.010018302127718925],"min":[0.0,0.0,0.0]},{"bufferView":68,"componentType":5126,"count":625,"type":"SCALAR","max":[20.80000114440918],"min":[0.0]},{"bufferView":69,"componentType":5126,"count":625,"type":"VEC3","max":[-0.030300000682473183,0.08389999717473984,0.029500000178813934],"min":[-0.030300000682473183,0.0,0.029500000178813934]},{"bufferView":70,"componentType":5126,"count":625,"type":"VEC4","max":[0.0,0.0,0.0,1.0],"min":[0.0,0.0,0.0,1.0]},{"bufferView":71,"componentType":5126,"count":625,"type":"VEC3","max":[0.01001914031803608,0.01001914031803608,0.01001914031803608],"min":[0.0,0.0,0.0]},{"bufferView":72,"componentType":5126,"count":625,"type":"SCALAR","max":[20.80000114440918],"min":[0.0]},{"bufferView":73,"componentType":5126,"count":625,"type":"VEC3","max":[-0.0010999999940395355,0.08389999717473984,0.04690000042319298],"min":[-0.0010999999940395355,0.0,0.04690000042319298]},{"bufferView":74,"componentType":5126,"count":625,"type":"VEC4","max":[0.0,0.0,0.0,1.0],"min":[0.0,0.0,0.0,1.0]},{"bufferView":75,"componentType":5126,"count":625,"type":"VEC3","max":[0.01001914031803608,0.01001914031803608,0.01001914031803608],"min":[0.0,0.0,0.0]},{"bufferView":76,"componentType":5126,"count":625,"type":"SCALAR","max":[20.80000114440918],"min":[0.0]},{"bufferView":77,"componentType":5126,"count":625,"type":"VEC3","max":[0.02419999986886978,0.08389999717473984,0.03200000151991844],"min":[0.02419999986886978,0.0,0.03200000151991844]},{"bufferView":78,"componentType":5126,"count":625,"type":"VEC4","max":[0.0,0.0,0.0,1.0],"min":[0.0,0.0,0.0,1.0]},{"bufferView":79,"componentType":5126,"count":625,"type":"VEC3","max":[0.010017427615821362,0.010017427615821362,0.010017427615821362],"min":[0.0,0.0,0.0]},{"bufferView":80,"componentType":5126,"count":625,"type":"SCALAR","max":[20.80000114440918],"min":[0.0]},{"bufferView":81,"componentType":5126,"count":625,"type":"VEC3","max":[0.008999999612569809,0.08389999717473984,-0.01590000092983246],"min":[0.008999999612569809,0.0,-0.01590000092983246]},{"bufferView":82,"componentType":5126,"count":625,"type":"VEC4","max":[0.0,0.0,0.0,1.0],"min":[0.0,0.0,0.0,1.0]},{"bufferView":83,"componentType":5126,"count":625,"type":"VEC3","max":[0.010026623494923115,0.010026623494923115,0.010026623494923115],"min":[0.0,0.0,0.0]},{"bufferView":84,"componentType":5126,"count":625,"type":"SCALAR","max":[20.80000114440918],"min":[0.0]},{"bufferView":85,"componentType":5126,"count":625,"type":"VEC3","max":[-0.007300000172108412,0.08389999717473984,-0.010599999688565731],"min":[-0.007300000172108412,0.0,-0.010599999688565731]},{"bufferView":86,"componentType":5126,"count":625,"type":"VEC4","max":[0.0,0.0,0.0,1.0],"min":[0.0,0.0,0.0,1.0]},{"bufferView":87,"componentType":5126,"count":625,"type":"VEC3","max":[0.010019139386713505,0.010019139386713505,0.010019139386713505],"min":[0.0,0.0,0.0]},{"bufferView":88,"componentType":5126,"count":625,"type":"SCALAR","max":[20.80000114440918],"min":[0.0]},{"bufferView":89,"componentType":5126,"count":625,"type":"VEC3","max":[0.022700000554323196,0.08389999717473984,-0.006200000178068876],"min":[0.022700000554323196,0.0,-0.006200000178068876]},{"bufferView":90,"componentType":5126,"count":625,"type":"VEC4","max":[0.0,0.0,0.0,1.0],"min":[0.0,0.0,0.0,1.0]},{"bufferView":91,"componentType":5126,"count":625,"type":"VEC3","max":[0.010018237866461277,0.010018237866461277,0.010018237866461277],"min":[0.0,0.0,0.0]},{"bufferView":92,"componentType":5126,"count":625,"type":"SCALAR","max":[20.80000114440918],"min":[0.0]},{"bufferView":93,"componentType":5126,"count":625,"type":"VEC3","max":[0.023099999874830246,0.08389999717473984,0.012199999764561653],"min":[0.023099999874830246,0.0,0.012199999764561653]},{"bufferView":94,"componentType":5126,"count":625,"type":"VEC4","max":[0.0,0.0,0.0,1.0],"min":[0.0,0.0,0.0,1.0]},{"bufferView":95,"componentType":5126,"count":625,"type":"VEC3","max":[0.010018237866461277,0.010018237866461277,0.010018237866461277],"min":[0.0,0.0,0.0]},{"bufferView":96,"componentType":5126,"count":625,"type":"SCALAR","max":[20.80000114440918],"min":[0.0]},{"bufferView":97,"componentType":5126,"count":625,"type":"VEC3","max":[-0.025100000202655792,0.08389999717473984,-0.010599999688565731],"min":[-0.025100000202655792,0.0,-0.010599999688565731]},{"bufferView":98,"componentType":5126,"count":625,"type":"VEC4","max":[0.0,0.0,0.0,1.0],"min":[0.0,0.0,0.0,1.0]},{"bufferView":99,"componentType":5126,"count":625,"type":"VEC3","max":[0.010018237866461277,0.010018237866461277,0.010018237866461277],"min":[0.0,0.0,0.0]},{"bufferView":100,"componentType":5126,"count":625,"type":"SCALAR","max":[20.80000114440918],"min":[0.0]},{"bufferView":101,"componentType":5126,"count":625,"type":"VEC3","max":[-0.02669999934732914,0.08389999717473984,0.009100000374019146],"min":[-0.02669999934732914,0.0,0.009100000374019146]},{"bufferView":102,"componentType":5126,"count":625,"type":"VEC4","max":[0.0,0.0,0.0,1.0],"min":[0.0,0.0,0.0,1.0]},{"bufferView":103,"componentType":5126,"count":625,"type":"VEC3","max":[0.01001824252307415,0.01001824252307415,0.01001824252307415],"min":[0.0,0.0,0.0]},{"bufferView":104,"componentType":5126,"count":625,"type":"SCALAR","max":[20.80000114440918],"min":[0.0]},{"bufferView":105,"componentType":5126,"count":625,"type":"VEC3","max":[-0.014800000004470348,0.08389999717473984,0.029100000858306885],"min":[-0.014800000004470348,0.0,0.029100000858306885]},{"bufferView":106,"componentType":5126,"count":625,"type":"VEC4","max":[0.0,0.0,0.0,1.0],"min":[0.0,0.0,0.0,1.0]},{"bufferView":107,"componentType":5126,"count":625,"type":"VEC3","max":[0.01001914031803608,0.01001914031803608,0.01001914031803608],"min":[0.0,0.0,0.0]},{"bufferView":108,"componentType":5126,"count":625,"type":"SCALAR","max":[20.80000114440918],"min":[0.0]},{"bufferView":109,"componentType":5126,"count":625,"type":"VEC3","max":[0.006200000178068876,0.08389999717473984,0.026799999177455902],"min":[0.006200000178068876,0.0,0.026799999177455902]},{"bufferView":110,"componentType":5126,"count":625,"type":"VEC4","max":[0.0,0.0,0.0,1.0],"min":[0.0,0.0,0.0,1.0]},{"bufferView":111,"componentType":5126,"count":625,"type":"VEC3","max":[0.01001824252307415,0.01001824252307415,0.01001824252307415],"min":[0.0,0.0,0.0]},{"bufferView":112,"componentType":5126,"count":625,"type":"SCALAR","max":[20.80000114440918],"min":[0.0]},{"bufferView":113,"componentType":5126,"count":625,"type":"VEC3","max":[0.0,0.08389999717473984,0.0],"min":[0.0,0.0,0.0]},{"bufferView":114,"componentType":5126,"count":625,"type":"VEC4","max":[0.0,0.0,0.0,1.0],"min":[0.0,0.0,0.0,1.0]},{"bufferView":115,"componentType":5126,"count":625,"type":"VEC3","max":[0.010018314234912395,0.010018314234912395,0.010018314234912395],"min":[0.0,0.0,0.0]},{"bufferView":116,"componentType":5126,"count":625,"type":"SCALAR","max":[20.80000114440918],"min":[0.0]},{"bufferView":117,"componentType":5126,"count":625,"type":"VEC3","max":[-0.051600001752376556,0.03500000014901161,-0.019099999219179153],"min":[-0.051600001752376556,0.0,-0.019099999219179153]},{"bufferView":118,"componentType":5126,"count":625,"type":"VEC4","max":[0.0,0.0,0.0,1.0],"min":[0.0,0.0,0.0,1.0]},{"bufferView":119,"componentType":5126,"count":625,"type":"VEC3","max":[0.013549000024795532,0.05400000140070915,0.013549000024795532],"min":[0.013549000024795532,0.0,0.013549000024795532]},{"bufferView":120,"componentType":5126,"count":625,"type":"SCALAR","max":[20.80000114440918],"min":[0.0]},{"bufferView":121,"componentType":5126,"count":625,"type":"VEC3","max":[-0.051600001752376556,0.07100000232458115,-0.019099999219179153],"min":[-0.051600001752376556,0.0,-0.019099999219179153]},{"bufferView":122,"componentType":5126,"count":625,"type":"VEC4","max":[0.0,0.0,0.0,1.0],"min":[0.0,0.0,0.0,1.0]},{"bufferView":123,"componentType":5126,"count":625,"type":"VEC3","max":[0.013549000024795532,0.05299999937415123,0.013549000024795532],"min":[0.013549000024795532,0.0,0.013549000024795532]},{"bufferView":124,"componentType":5126,"count":625,"type":"SCALAR","max":[20.80000114440918],"min":[0.0]},{"bufferView":125,"componentType":5126,"count":625,"type":"VEC3","max":[0.027899999171495438,0.03790000081062317,0.05810000002384186],"min":[0.027899999171495438,0.0,0.05810000002384186]},{"bufferView":126,"componentType":5126,"count":625,"type":"VEC4","max":[0.0,0.0,0.0,1.0],"min":[0.0,0.0,0.0,1.0]},{"bufferView":127,"componentType":5126,"count":625,"type":"VEC3","max":[0.013549000024795532,0.019999999552965164,0.013549000024795532],"min":[0.013549000024795532,0.0,0.013549000024795532]},{"bufferView":128,"componentType":5126,"count":625,"type":"SCALAR","max":[20.80000114440918],"min":[0.0]},{"bufferView":129,"componentType":5126,"count":625,"type":"VEC3","max":[-0.03849999979138374,0.07500000298023224,-0.034699998795986176],"min":[-0.03850000351667404,0.0,-0.034699998795986176]},{"bufferView":130,"componentType":5126,"count":625,"type":"VEC4","max":[0.0,0.0,0.0,1.0],"min":[0.0,0.0,0.0,1.0]},{"bufferView":131,"componentType":5126,"count":625,"type":"VEC3","max":[0.013549000024795532,0.09000000357627869,0.013549000024795532],"min":[0.013549000024795532,0.0,0.013549000024795532]},{"bufferView":132,"componentType":5126,"count":625,"type":"SCALAR","max":[20.80000114440918],"min":[0.0]},{"bufferView":133,"componentType":5126,"count":625,"type":"VEC3","max":[0.0568000003695488,0.06800000369548798,0.03490000218153],"min":[0.0567999966442585,0.0,0.0348999984562397]},{"bufferView":134,"componentType":5126,"count":625,"type":"VEC4","max":[0.0,0.0,0.0,1.0],"min":[0.0,0.0,0.0,1.0]},{"bufferView":135,"componentType":5126,"count":625,"type":"VEC3","max":[0.013549000024795532,0.07999999821186066,0.013549000024795532],"min":[0.013549000024795532,0.0,0.013549000024795532]},{"bufferView":136,"componentType":5126,"count":625,"type":"SCALAR","max":[20.80000114440918],"min":[0.0]},{"bufferView":137,"componentType":5126,"count":625,"type":"VEC3","max":[0.06310000270605087,0.02500000037252903,-0.004999999888241291],"min":[0.06309999525547028,0.0,-0.004999999888241291]},{"bufferView":138,"componentType":5126,"count":625,"type":"VEC4","max":[0.0,0.0,0.0,1.0],"min":[0.0,0.0,0.0,1.0]},{"bufferView":139,"componentType":5126,"count":625,"type":"VEC3","max":[0.013549000024795532,0.032999999821186066,0.013549000024795532],"min":[0.013549000024795532,0.0,0.013549000024795532]},{"bufferView":140,"componentType":5126,"count":625,"type":"SCALAR","max":[20.80000114440918],"min":[0.0]},{"bufferView":141,"componentType":5126,"count":625,"type":"VEC3","max":[-0.006400002166628838,0.024000000208616257,0.06109999865293503],"min":[-0.006400002166628838,0.0,0.06109999865293503]},{"bufferView":142,"componentType":5126,"count":625,"type":"VEC4","max":[0.0,0.0,0.0,1.0],"min":[0.0,0.0,0.0,1.0]},{"bufferView":143,"componentType":5126,"count":625,"type":"VEC3","max":[0.013549000024795532,0.07400000095367432,0.013549000024795532],"min":[0.013549000024795532,0.0,0.013549000024795532]},{"bufferView":144,"componentType":5126,"count":625,"type":"SCALAR","max":[20.80000114440918],"min":[0.0]},{"bufferView":145,"componentType":5126,"count":625,"type":"VEC3","max":[0.04019999876618385,0.06499999761581421,-0.04190000146627426],"min":[0.040199995040893555,0.0,-0.04190000146627426]},{"bufferView":146,"componentType":5126,"count":625,"type":"VEC4","max":[0.0,0.0,0.0,1.0],"min":[0.0,0.0,0.0,1.0]},{"bufferView":147,"componentType":5126,"count":625,"type":"VEC3","max":[0.013549000024795532,0.09000000357627869,0.013549000024795532],"min":[0.013549000024795532,0.0,0.013549000024795532]},{"bufferView":148,"componentType":5126,"count":625,"type":"SCALAR","max":[20.80000114440918],"min":[0.0]},{"bufferView":149,"componentType":5126,"count":625,"type":"VEC3","max":[-0.023900000378489494,0.05270000174641609,0.05530000105500221],"min":[-0.023900002241134644,0.0,0.05530000105500221]},{"bufferView":150,"componentType":5126,"count":625,"type":"VEC4","max":[0.0,0.0,0.0,1.0],"min":[0.0,0.0,0.0,1.0]},{"bufferView":151,"componentType":5126,"count":625,"type":"VEC3","max":[0.013549000024795532,0.057999998331069946,0.013549000024795532],"min":[0.013549000024795532,0.0,0.013549000024795532]},{"bufferView":152,"componentType":5126,"count":625,"type":"SCALAR","max":[20.80000114440918],"min":[0.0]},{"bufferView":153,"componentType":5126,"count":625,"type":"VEC3","max":[-0.006400002166628838,0.05400000140070915,0.06109999865293503],"min":[-0.006400002166628838,0.0,0.06109999865293503]},{"bufferView":154,"componentType":5126,"count":625,"type":"VEC4","max":[0.0,0.0,0.0,1.0],"min":[0.0,0.0,0.0,1.0]},{"bufferView":155,"componentType":5126,"count":625,"type":"VEC3","max":[0.013549000024795532,0.0860000029206276,0.013549000024795532],"min":[0.013549000024795532,0.0,0.013549000024795532]},{"bufferView":156,"componentType":5126,"count":625,"type":"SCALAR","max":[20.80000114440918],"min":[0.0]},{"bufferView":157,"componentType":5126,"count":625,"type":"VEC3","max":[-0.056000005453825,0.03700000047683716,0.026100000366568565],"min":[-0.056000009179115295,0.0,0.026100000366568565]},{"bufferView":158,"componentType":5126,"count":625,"type":"VEC4","max":[0.0,0.0,0.0,1.0],"min":[0.0,0.0,0.0,1.0]},{"bufferView":159,"componentType":5126,"count":625,"type":"VEC3","max":[0.013549000024795532,0.07699999958276749,0.013549000024795532],"min":[0.013549000024795532,0.0,0.013549000024795532]},{"bufferView":160,"componentType":5126,"count":625,"type":"SCALAR","max":[20.80000114440918],"min":[0.0]},{"bufferView":161,"componentType":5126,"count":625,"type":"VEC3","max":[0.05820000171661377,0.054999999701976776,-0.031700000166893005],"min":[0.05819999799132347,0.0,-0.031700000166893005]},{"bufferView":162,"componentType":5126,"count":625,"type":"VEC4","max":[0.0,0.0,0.0,1.0],"min":[0.0,0.0,0.0,1.0]},{"bufferView":163,"componentType":5126,"count":625,"type":"VEC3","max":[0.013549000024795532,0.09000000357627869,0.013549000024795532],"min":[0.013549000024795532,0.0,0.013549000024795532]},{"bufferView":164,"componentType":5126,"count":625,"type":"SCALAR","max":[20.80000114440918],"min":[0.0]},{"bufferView":165,"componentType":5126,"count":625,"type":"VEC3","max":[-0.04919999837875366,0.04560000076889992,0.04170000180602074],"min":[-0.04920000210404396,0.0,0.04170000180602074]},{"bufferView":166,"componentType":5126,"count":625,"type":"VEC4","max":[0.0,0.0,0.0,1.0],"min":[0.0,0.0,0.0,1.0]},{"bufferView":167,"componentType":5126,"count":625,"type":"VEC3","max":[0.013549000024795532,0.057999998331069946,0.013549000024795532],"min":[0.013549000024795532,0.0,0.013549000024795532]},{"bufferView":168,"componentType":5126,"count":625,"type":"SCALAR","max":[20.80000114440918],"min":[0.0]},{"bufferView":169,"componentType":5126,"count":625,"type":"VEC3","max":[0.040800001472234726,0.03500000014901161,0.05290000140666962],"min":[0.04079999774694443,0.0,0.05290000140666962]},{"bufferView":170,"componentType":5126,"count":625,"type":"VEC4","max":[0.0,0.0,0.0,1.0],"min":[0.0,0.0,0.0,1.0]},{"bufferView":171,"componentType":5126,"count":625,"type":"VEC3","max":[0.013549000024795532,0.05000000074505806,0.013549000024795532],"min":[0.013549000024795532,0.0,0.013549000024795532]},{"bufferView":172,"componentType":5126,"count":625,"type":"SCALAR","max":[20.80000114440918],"min":[0.0]},{"bufferView":173,"componentType":5126,"count":625,"type":"VEC3","max":[0.020800000056624413,0.02500000037252903,-0.046300001442432404],"min":[0.020799998193979263,0.0,-0.046300001442432404]},{"bufferView":174,"componentType":5126,"count":625,"type":"VEC4","max":[0.0,0.0,0.0,1.0],"min":[0.0,0.0,0.0,1.0]},{"bufferView":175,"componentType":5126,"count":625,"type":"VEC3","max":[0.013549000024795532,0.05999999865889549,0.013549000024795532],"min":[0.013549000024795532,0.0,0.013549000024795532]},{"bufferView":176,"componentType":5126,"count":625,"type":"SCALAR","max":[20.80000114440918],"min":[0.0]},{"bufferView":177,"componentType":5126,"count":625,"type":"VEC3","max":[0.02280000038444996,0.02539999969303608,-0.04729999974370003],"min":[0.02279999852180481,0.0,-0.04729999974370003]},{"bufferView":178,"componentType":5126,"count":625,"type":"VEC4","max":[0.0,0.0,0.0,1.0],"min":[0.0,0.0,0.0,1.0]},{"bufferView":179,"componentType":5126,"count":625,"type":"VEC3","max":[0.013549000024795532,0.06700000166893005,0.013549000024795532],"min":[0.013549000024795532,0.0,0.013549000024795532]},{"bufferView":180,"componentType":5126,"count":625,"type":"SCALAR","max":[20.80000114440918],"min":[0.0]},{"bufferView":181,"componentType":5126,"count":625,"type":"VEC3","max":[-0.03610000014305115,0.04500000178813934,0.05339999869465828],"min":[-0.036100003868341446,0.0,0.05339999869465828]},{"bufferView":182,"componentType":5126,"count":625,"type":"VEC4","max":[0.0,0.0,0.0,1.0],"min":[0.0,0.0,0.0,1.0]},{"bufferView":183,"componentType":5126,"count":625,"type":"VEC3","max":[0.013549000024795532,0.05299999937415123,0.013549000024795532],"min":[0.013549000024795532,0.0,0.013549000024795532]},{"bufferView":184,"componentType":5126,"count":625,"type":"SCALAR","max":[20.80000114440918],"min":[0.0]},{"bufferView":185,"componentType":5126,"count":625,"type":"VEC3","max":[0.010700000450015068,0.05400000140070915,0.059700001031160355],"min":[0.010699997656047344,0.0,0.059699997305870056]},{"bufferView":186,"componentType":5126,"count":625,"type":"VEC4","max":[0.0,0.0,0.0,1.0],"min":[0.0,0.0,0.0,1.0]},{"bufferView":187,"componentType":5126,"count":625,"type":"VEC3","max":[0.013549000024795532,0.029999999329447746,0.013549000024795532],"min":[0.013549000024795532,0.0,0.013549000024795532]},{"bufferView":188,"componentType":5126,"count":625,"type":"SCALAR","max":[20.80000114440918],"min":[0.0]},{"bufferView":189,"componentType":5126,"count":625,"type":"VEC3","max":[-0.05790000036358833,0.07500000298023224,0.013000000268220901],"min":[-0.05790000036358833,0.0,0.013000000268220901]},{"bufferView":190,"componentType":5126,"count":625,"type":"VEC4","max":[0.0,0.0,0.0,1.0],"min":[0.0,0.0,0.0,1.0]},{"bufferView":191,"componentType":5126,"count":625,"type":"VEC3","max":[0.013549000024795532,0.03500000014901161,0.013549000024795532],"min":[0.013549000024795532,0.0,0.013549000024795532]},{"bufferView":192,"componentType":5126,"count":625,"type":"SCALAR","max":[20.80000114440918],"min":[0.0]},{"bufferView":193,"componentType":5126,"count":625,"type":"VEC3","max":[-0.05739999935030937,0.03500000014901161,-0.0010999995283782482],"min":[-0.05739999935030937,0.0,-0.0010999999940395355]},{"bufferView":194,"componentType":5126,"count":625,"type":"VEC4","max":[0.0,0.0,0.0,1.0],"min":[0.0,0.0,0.0,1.0]},{"bufferView":195,"componentType":5126,"count":625,"type":"VEC3","max":[0.013549000024795532,0.04500000178813934,0.013549000024795532],"min":[0.013549000024795532,0.0,0.013549000024795532]},{"bufferView":196,"componentType":5126,"count":625,"type":"SCALAR","max":[20.80000114440918],"min":[0.0]},{"bufferView":197,"componentType":5126,"count":625,"type":"VEC3","max":[-0.02290000021457672,0.06400000303983688,-0.04340000078082085],"min":[-0.02290000393986702,0.0,-0.04340000078082085]},{"bufferView":198,"componentType":5126,"count":625,"type":"VEC4","max":[0.0,0.0,0.0,1.0],"min":[0.0,0.0,0.0,1.0]},{"bufferView":199,"componentType":5126,"count":625,"type":"VEC3","max":[0.013549000024795532,0.029999999329447746,0.013549000024795532],"min":[0.013549000024795532,0.0,0.013549000024795532]},{"bufferView":200,"componentType":5126,"count":625,"type":"SCALAR","max":[20.80000114440918],"min":[0.0]},{"bufferView":201,"componentType":5126,"count":625,"type":"VEC3","max":[0.06310000270605087,0.06499999761581421,0.01250000111758709],"min":[0.06309999525547028,0.0,0.012500000186264515]},{"bufferView":202,"componentType":5126,"count":625,"type":"VEC4","max":[0.0,0.0,0.0,1.0],"min":[0.0,0.0,0.0,1.0]},{"bufferView":203,"componentType":5126,"count":625,"type":"VEC3","max":[0.013549000024795532,0.09000000357627869,0.013549000024795532],"min":[0.013549000024795532,0.0,0.013549000024795532]},{"bufferView":204,"componentType":5126,"count":625,"type":"SCALAR","max":[20.80000114440918],"min":[0.0]},{"bufferView":205,"componentType":5126,"count":625,"type":"VEC3","max":[-0.002000001957640052,0.050999999046325684,-0.046799998730421066],"min":[-0.0020000021904706955,0.0,-0.046799998730421066]},{"bufferView":206,"componentType":5126,"count":625,"type":"VEC4","max":[0.0,0.0,0.0,1.0],"min":[0.0,0.0,0.0,1.0]},{"bufferView":207,"componentType":5126,"count":625,"type":"VEC3","max":[0.013549000024795532,0.029999999329447746,0.013549000024795532],"min":[0.013549000024795532,0.0,0.013549000024795532]},{"bufferView":208,"componentType":5126,"count":625,"type":"SCALAR","max":[20.80000114440918],"min":[0.0]},{"bufferView":209,"componentType":5126,"count":625,"type":"VEC3","max":[0.0,0.011900000274181366,0.0],"min":[0.0,0.011900000274181366,0.0]},{"bufferView":210,"componentType":5126,"count":625,"type":"VEC4","max":[0.7071067690849304,0.7071058750152588,0.7070843577384949,0.7071067690849304],"min":[-0.7071022987365723,-0.7070843577384949,-0.7071058750152588,-0.7071022987365723]},{"bufferView":211,"componentType":5126,"count":625,"type":"VEC3","max":[0.17299999296665192,0.17299999296665192,0.17299999296665192],"min":[0.0,0.0,0.0]},{"bufferView":212,"componentType":5126,"count":625,"type":"SCALAR","max":[20.80000114440918],"min":[0.0]},{"bufferView":213,"componentType":5126,"count":625,"type":"VEC3","max":[0.0,0.011900000274181366,0.0],"min":[0.0,0.011900000274181366,0.0]},{"bufferView":214,"componentType":5126,"count":625,"type":"VEC4","max":[0.7071067690849304,0.7070930004119873,0.707106351852417,0.7071067690849304],"min":[-0.7071048617362976,-0.707106351852417,-0.7070930004119873,-0.7071048617362976]},{"bufferView":215,"componentType":5126,"count":625,"type":"VEC3","max":[0.17299999296665192,0.17299999296665192,0.17299999296665192],"min":[0.0,0.0,0.0]},{"bufferView":216,"componentType":5126,"count":625,"type":"SCALAR","max":[20.80000114440918],"min":[0.0]},{"bufferView":217,"componentType":5126,"count":625,"type":"VEC3","max":[0.0,0.011900000274181366,0.0],"min":[0.0,0.011900000274181366,0.0]},{"bufferView":218,"componentType":5126,"count":625,"type":"VEC4","max":[0.7071067690849304,0.7071065306663513,0.7071065306663513,0.7071067690849304],"min":[-0.7070742249488831,-0.7071065306663513,-0.7071065306663513,-0.7070742249488831]},{"bufferView":219,"componentType":5126,"count":625,"type":"VEC3","max":[0.17299999296665192,0.17299999296665192,0.17299999296665192],"min":[0.0,0.0,0.0]},{"bufferView":220,"componentType":5126,"count":625,"type":"SCALAR","max":[20.80000114440918],"min":[0.0]},{"bufferView":221,"componentType":5126,"count":625,"type":"VEC3","max":[0.0,0.0,0.0],"min":[0.0,0.0,0.0]},{"bufferView":222,"componentType":5126,"count":625,"type":"VEC4","max":[0.7071065902709961,0.707099199295044,0.707099199295044,0.7071067690849304],"min":[-0.7071067690849304,-0.7071058750152588,-0.7071058750152588,-0.7071065902709961]},{"bufferView":223,"componentType":5126,"count":625,"type":"VEC3","max":[0.5050979852676392,0.5050979852676392,0.6813771724700928],"min":[9.999999747378752e-05,9.999999747378752e-05,9.999999747378752e-05]},{"bufferView":224,"componentType":5126,"count":625,"type":"SCALAR","max":[20.80000114440918],"min":[0.0]},{"bufferView":225,"componentType":5126,"count":625,"type":"VEC3","max":[0.0,0.0,0.0],"min":[0.0,0.0,0.0]},{"bufferView":226,"componentType":5126,"count":625,"type":"VEC4","max":[0.7070890069007874,0.7063255310058594,0.7063255310058594,0.7071067690849304],"min":[-0.7071067690849304,-0.7065748572349548,-0.7065748572349548,-0.7070890069007874]},{"bufferView":227,"componentType":5126,"count":625,"type":"VEC3","max":[0.5050979852676392,0.5050979852676392,0.6813771724700928],"min":[9.999999747378752e-05,9.999999747378752e-05,9.999999747378752e-05]},{"bufferView":228,"componentType":5126,"count":625,"type":"SCALAR","max":[20.80000114440918],"min":[0.0]},{"bufferView":229,"componentType":5126,"count":625,"type":"VEC3","max":[0.0,0.0,0.0],"min":[0.0,0.0,0.0]},{"bufferView":230,"componentType":5126,"count":625,"type":"VEC4","max":[0.7070870399475098,0.707103967666626,0.707103967666626,0.7071067690849304],"min":[-0.7071067690849304,-0.7071046233177185,-0.7071046233177185,-0.7070870399475098]},{"bufferView":231,"componentType":5126,"count":625,"type":"VEC3","max":[0.5050979852676392,0.5050979852676392,0.6813771724700928],"min":[9.999999747378752e-05,9.999999747378752e-05,9.999999747378752e-05]}],"animations":[{"channels":[{"sampler":0,"target":{"node":24,"path":"translation"}},{"sampler":1,"target":{"node":24,"path":"rotation"}},{"sampler":2,"target":{"node":24,"path":"scale"}},{"sampler":3,"target":{"node":23,"path":"translation"}},{"sampler":4,"target":{"node":23,"path":"rotation"}},{"sampler":5,"target":{"node":23,"path":"scale"}},{"sampler":6,"target":{"node":22,"path":"translation"}},{"sampler":7,"target":{"node":22,"path":"rotation"}},{"sampler":8,"target":{"node":22,"path":"scale"}},{"sampler":9,"target":{"node":21,"path":"translation"}},{"sampler":10,"target":{"node":21,"path":"rotation"}},{"sampler":11,"target":{"node":21,"path":"scale"}},{"sampler":12,"target":{"node":20,"path":"translation"}},{"sampler":13,"target":{"node":20,"path":"rotation"}},{"sampler":14,"target":{"node":20,"path":"scale"}},{"sampler":15,"target":{"node":19,"path":"translation"}},{"sampler":16,"target":{"node":19,"path":"rotation"}},{"sampler":17,"target":{"node":19,"path":"scale"}},{"sampler":18,"target":{"node":18,"path":"translation"}},{"sampler":19,"target":{"node":18,"path":"rotation"}},{"sampler":20,"target":{"node":18,"path":"scale"}},{"sampler":21,"target":{"node":17,"path":"translation"}},{"sampler":22,"target":{"node":17,"path":"rotation"}},{"sampler":23,"target":{"node":17,"path":"scale"}},{"sampler":24,"target":{"node":16,"path":"translation"}},{"sampler":25,"target":{"node":16,"path":"rotation"}},{"sampler":26,"target":{"node":16,"path":"scale"}},{"sampler":27,"target":{"node":15,"path":"translation"}},{"sampler":28,"target":{"node":15,"path":"rotation"}},{"sampler":29,"target":{"node":15,"path":"scale"}},{"sampler":30,"target":{"node":14,"path":"translation"}},{"sampler":31,"target":{"node":14,"path":"rotation"}},{"sampler":32,"target":{"node":14,"path":"scale"}},{"sampler":33,"target":{"node":13,"path":"translation"}},{"sampler":34,"target":{"node":13,"path":"rotation"}},{"sampler":35,"target":{"node":13,"path":"scale"}},{"sampler":36,"target":{"node":12,"path":"translation"}},{"sampler":37,"target":{"node":12,"path":"rotation"}},{"sampler":38,"target":{"node":12,"path":"scale"}},{"sampler":39,"target":{"node":11,"path":"translation"}},{"sampler":40,"target":{"node":11,"path":"rotation"}},{"sampler":41,"target":{"node":11,"path":"scale"}},{"sampler":42,"target":{"node":10,"path":"translation"}},{"sampler":43,"target":{"node":10,"path":"rotation"}},{"sampler":44,"target":{"node":10,"path":"scale"}},{"sampler":45,"target":{"node":9,"path":"translation"}},{"sampler":46,"target":{"node":9,"path":"rotation"}},{"sampler":47,"target":{"node":9,"path":"scale"}},{"sampler":48,"target":{"node":8,"path":"translation"}},{"sampler":49,"target":{"node":8,"path":"rotation"}},{"sampler":50,"target":{"node":8,"path":"scale"}},{"sampler":51,"target":{"node":7,"path":"translation"}},{"sampler":52,"target":{"node":7,"path":"rotation"}},{"sampler":53,"target":{"node":7,"path":"scale"}},{"sampler":54,"target":{"node":6,"path":"translation"}},{"sampler":55,"target":{"node":6,"path":"rotation"}},{"sampler":56,"target":{"node":6,"path":"scale"}},{"sampler":57,"target":{"node":5,"path":"translation"}},{"sampler":58,"target":{"node":5,"path":"rotation"}},{"sampler":59,"target":{"node":5,"path":"scale"}},{"sampler":60,"target":{"node":4,"path":"translation"}},{"sampler":61,"target":{"node":4,"path":"rotation"}},{"sampler":62,"target":{"node":4,"path":"scale"}},{"sampler":63,"target":{"node":3,"path":"translation"}},{"sampler":64,"target":{"node":3,"path":"rotation"}},{"sampler":65,"target":{"node":3,"path":"scale"}},{"sampler":66,"target":{"node":2,"path":"translation"}},{"sampler":67,"target":{"node":2,"path":"rotation"}},{"sampler":68,"target":{"node":2,"path":"scale"}},{"sampler":69,"target":{"node":1,"path":"translation"}},{"sampler":70,"target":{"node":1,"path":"rotation"}},{"sampler":71,"target":{"node":1,"path":"scale"}},{"sampler":72,"target":{"node":37,"path":"translation"}},{"sampler":73,"target":{"node":37,"path":"rotation"}},{"sampler":74,"target":{"node":37,"path":"scale"}},{"sampler":75,"target":{"node":38,"path":"translation"}},{"sampler":76,"target":{"node":38,"path":"rotation"}},{"sampler":77,"target":{"node":38,"path":"scale"}},{"sampler":78,"target":{"node":25,"path":"translation"}},{"sampler":79,"target":{"node":25,"path":"rotation"}},{"sampler":80,"target":{"node":25,"path":"scale"}},{"sampler":81,"target":{"node":36,"path":"translation"}},{"sampler":82,"target":{"node":36,"path":"rotation"}},{"sampler":83,"target":{"node":36,"path":"scale"}},{"sampler":84,"target":{"node":28,"path":"translation"}},{"sampler":85,"target":{"node":28,"path":"rotation"}},{"sampler":86,"target":{"node":28,"path":"scale"}},{"sampler":87,"target":{"node":30,"path":"translation"}},{"sampler":88,"target":{"node":30,"path":"rotation"}},{"sampler":89,"target":{"node":30,"path":"scale"}},{"sampler":90,"target":{"node":46,"path":"translation"}},{"sampler":91,"target":{"node":46,"path":"rotation"}},{"sampler":92,"target":{"node":46,"path":"scale"}},{"sampler":93,"target":{"node":32,"path":"translation"}},{"sampler":94,"target":{"node":32,"path":"rotation"}},{"sampler":95,"target":{"node":32,"path":"scale"}},{"sampler":96,"target":{"node":44,"path":"translation"}},{"sampler":97,"target":{"node":44,"path":"rotation"}},{"sampler":98,"target":{"node":44,"path":"scale"}},{"sampler":99,"target":{"node":45,"path":"translation"}},{"sampler":100,"target":{"node":45,"path":"rotation"}},{"sampler":101,"target":{"node":45,"path":"scale"}},{"sampler":102,"target":{"node":41,"path":"translation"}},{"sampler":103,"target":{"node":41,"path":"rotation"}},{"sampler":104,"target":{"node":41,"path":"scale"}},{"sampler":105,"target":{"node":31,"path":"translation"}},{"sampler":106,"target":{"node":31,"path":"rotation"}},{"sampler":107,"target":{"node":31,"path":"scale"}},{"sampler":108,"target":{"node":42,"path":"translation"}},{"sampler":109,"target":{"node":42,"path":"rotation"}},{"sampler":110,"target":{"node":42,"path":"scale"}},{"sampler":111,"target":{"node":27,"path":"translation"}},{"sampler":112,"target":{"node":27,"path":"rotation"}},{"sampler":113,"target":{"node":27,"path":"scale"}},{"sampler":114,"target":{"node":33,"path":"translation"}},{"sampler":115,"target":{"node":33,"path":"rotation"}},{"sampler":116,"target":{"node":33,"path":"scale"}},{"sampler":117,"target":{"node":47,"path":"translation"}},{"sampler":118,"target":{"node":47,"path":"rotation"}},{"sampler":119,"target":{"node":47,"path":"scale"}},{"sampler":120,"target":{"node":43,"path":"translation"}},{"sampler":121,"target":{"node":43,"path":"rotation"}},{"sampler":122,"target":{"node":43,"path":"scale"}},{"sampler":123,"target":{"node":26,"path":"translation"}},{"sampler":124,"target":{"node":26,"path":"rotation"}},{"sampler":125,"target":{"node":26,"path":"scale"}},{"sampler":126,"target":{"node":40,"path":"translation"}},{"sampler":127,"target":{"node":40,"path":"rotation"}},{"sampler":128,"target":{"node":40,"path":"scale"}},{"sampler":129,"target":{"node":39,"path":"translation"}},{"sampler":130,"target":{"node":39,"path":"rotation"}},{"sampler":131,"target":{"node":39,"path":"scale"}},{"sampler":132,"target":{"node":35,"path":"translation"}},{"sampler":133,"target":{"node":35,"path":"rotation"}},{"sampler":134,"target":{"node":35,"path":"scale"}},{"sampler":135,"target":{"node":29,"path":"translation"}},{"sampler":136,"target":{"node":29,"path":"rotation"}},{"sampler":137,"target":{"node":29,"path":"scale"}},{"sampler":138,"target":{"node":34,"path":"translation"}},{"sampler":139,"target":{"node":34,"path":"rotation"}},{"sampler":140,"target":{"node":34,"path":"scale"}},{"sampler":141,"target":{"node":52,"path":"translation"}},{"sampler":142,"target":{"node":52,"path":"rotation"}},{"sampler":143,"target":{"node":52,"path":"scale"}},{"sampler":144,"target":{"node":51,"path":"translation"}},{"sampler":145,"target":{"node":51,"path":"rotation"}},{"sampler":146,"target":{"node":51,"path":"scale"}},{"sampler":147,"target":{"node":50,"path":"translation"}},{"sampler":148,"target":{"node":50,"path":"rotation"}},{"sampler":149,"target":{"node":50,"path":"scale"}},{"sampler":150,"target":{"node":49,"path":"translation"}},{"sampler":151,"target":{"node":49,"path":"rotation"}},{"sampler":152,"target":{"node":49,"path":"scale"}},{"sampler":153,"target":{"node":53,"path":"translation"}},{"sampler":154,"target":{"node":53,"path":"rotation"}},{"sampler":155,"target":{"node":53,"path":"scale"}},{"sampler":156,"target":{"node":54,"path":"translation"}},{"sampler":157,"target":{"node":54,"path":"rotation"}},{"sampler":158,"target":{"node":54,"path":"scale"}}],"samplers":[{"input":20,"output":21},{"input":20,"output":22},{"input":20,"output":23},{"input":24,"output":25},{"input":24,"output":26},{"input":24,"output":27},{"input":28,"output":29},{"input":28,"output":30},{"input":28,"output":31},{"input":32,"output":33},{"input":32,"output":34},{"input":32,"output":35},{"input":36,"output":37},{"input":36,"output":38},{"input":36,"output":39},{"input":40,"output":41},{"input":40,"output":42},{"input":40,"output":43},{"input":44,"output":45},{"input":44,"output":46},{"input":44,"output":47},{"input":48,"output":49},{"input":48,"output":50},{"input":48,"output":51},{"input":52,"output":53},{"input":52,"output":54},{"input":52,"output":55},{"input":56,"output":57},{"input":56,"output":58},{"input":56,"output":59},{"input":60,"output":61},{"input":60,"output":62},{"input":60,"output":63},{"input":64,"output":65},{"input":64,"output":66},{"input":64,"output":67},{"input":68,"output":69},{"input":68,"output":70},{"input":68,"output":71},{"input":72,"output":73},{"input":72,"output":74},{"input":72,"output":75},{"input":76,"output":77},{"input":76,"output":78},{"input":76,"output":79},{"input":80,"output":81},{"input":80,"output":82},{"input":80,"output":83},{"input":84,"output":85},{"input":84,"output":86},{"input":84,"output":87},{"input":88,"output":89},{"input":88,"output":90},{"input":88,"output":91},{"input":92,"output":93},{"input":92,"output":94},{"input":92,"output":95},{"input":96,"output":97},{"input":96,"output":98},{"input":96,"output":99},{"input":100,"output":101},{"input":100,"output":102},{"input":100,"output":103},{"input":104,"output":105},{"input":104,"output":106},{"input":104,"output":107},{"input":108,"output":109},{"input":108,"output":110},{"input":108,"output":111},{"input":112,"output":113},{"input":112,"output":114},{"input":112,"output":115},{"input":116,"output":117},{"input":116,"output":118},{"input":116,"output":119},{"input":120,"output":121},{"input":120,"output":122},{"input":120,"output":123},{"input":124,"output":125},{"input":124,"output":126},{"input":124,"output":127},{"input":128,"output":129},{"input":128,"output":130},{"input":128,"output":131},{"input":132,"output":133},{"input":132,"output":134},{"input":132,"output":135},{"input":136,"output":137},{"input":136,"output":138},{"input":136,"output":139},{"input":140,"output":141},{"input":140,"output":142},{"input":140,"output":143},{"input":144,"output":145},{"input":144,"output":146},{"input":144,"output":147},{"input":148,"output":149},{"input":148,"output":150},{"input":148,"output":151},{"input":152,"output":153},{"input":152,"output":154},{"input":152,"output":155},{"input":156,"output":157},{"input":156,"output":158},{"input":156,"output":159},{"input":160,"output":161},{"input":160,"output":162},{"input":160,"output":163},{"input":164,"output":165},{"input":164,"output":166},{"input":164,"output":167},{"input":168,"output":169},{"input":168,"output":170},{"input":168,"output":171},{"input":172,"output":173},{"input":172,"output":174},{"input":172,"output":175},{"input":176,"output":177},{"input":176,"output":178},{"input":176,"output":179},{"input":180,"output":181},{"input":180,"output":182},{"input":180,"output":183},{"input":184,"output":185},{"input":184,"output":186},{"input":184,"output":187},{"input":188,"output":189},{"input":188,"output":190},{"input":188,"output":191},{"input":192,"output":193},{"input":192,"output":194},{"input":192,"output":195},{"input":196,"output":197},{"input":196,"output":198},{"input":196,"output":199},{"input":200,"output":201},{"input":200,"output":202},{"input":200,"output":203},{"input":204,"output":205},{"input":204,"output":206},{"input":204,"output":207},{"input":208,"output":209},{"input":208,"output":210},{"input":208,"output":211},{"input":212,"output":213},{"input":212,"output":214},{"input":212,"output":215},{"input":216,"output":217},{"input":216,"output":218},{"input":216,"output":219},{"input":220,"output":221},{"input":220,"output":222},{"input":220,"output":223},{"input":224,"output":225},{"input":224,"output":226},{"input":224,"output":227},{"input":228,"output":229},{"input":228,"output":230},{"input":228,"output":231}],"name":"Take 001"}],"asset":{"generator":"UnityGLTF (2020.3.32f1c1)","version":"2.0"},"buffers":[{"uri":"StarlightEffect.bin","byteLength":1460836}],"bufferViews":[{"buffer":0,"byteLength":96},{"buffer":0,"byteOffset":96,"byteLength":96},{"buffer":0,"byteOffset":192,"byteLength":128},{"buffer":0,"byteOffset":320,"byteLength":64},{"buffer":0,"byteOffset":384,"byteLength":48},{"buffer":0,"byteOffset":432,"byteLength":96},{"buffer":0,"byteOffset":528,"byteLength":96},{"buffer":0,"byteOffset":624,"byteLength":128},{"buffer":0,"byteOffset":752,"byteLength":64},{"buffer":0,"byteOffset":816,"byteLength":48},{"buffer":0,"byteOffset":864,"byteLength":456},{"buffer":0,"byteOffset":1320,"byteLength":456},{"buffer":0,"byteOffset":1776,"byteLength":608},{"buffer":0,"byteOffset":2384,"byteLength":304},{"buffer":0,"byteOffset":2688,"byteLength":432},{"buffer":0,"byteOffset":3120,"byteLength":48},{"buffer":0,"byteOffset":3168,"byteLength":48},{"buffer":0,"byteOffset":3216,"byteLength":64},{"buffer":0,"byteOffset":3280,"byteLength":32},{"buffer":0,"byteOffset":3312,"byteLength":24},{"buffer":0,"byteOffset":3336,"byteLength":2500},{"buffer":0,"byteOffset":5836,"byteLength":7500},{"buffer":0,"byteOffset":13336,"byteLength":10000},{"buffer":0,"byteOffset":23336,"byteLength":7500},{"buffer":0,"byteOffset":30836,"byteLength":2500},{"buffer":0,"byteOffset":33336,"byteLength":7500},{"buffer":0,"byteOffset":40836,"byteLength":10000},{"buffer":0,"byteOffset":50836,"byteLength":7500},{"buffer":0,"byteOffset":58336,"byteLength":2500},{"buffer":0,"byteOffset":60836,"byteLength":7500},{"buffer":0,"byteOffset":68336,"byteLength":10000},{"buffer":0,"byteOffset":78336,"byteLength":7500},{"buffer":0,"byteOffset":85836,"byteLength":2500},{"buffer":0,"byteOffset":88336,"byteLength":7500},{"buffer":0,"byteOffset":95836,"byteLength":10000},{"buffer":0,"byteOffset":105836,"byteLength":7500},{"buffer":0,"byteOffset":113336,"byteLength":2500},{"buffer":0,"byteOffset":115836,"byteLength":7500},{"buffer":0,"byteOffset":123336,"byteLength":10000},{"buffer":0,"byteOffset":133336,"byteLength":7500},{"buffer":0,"byteOffset":140836,"byteLength":2500},{"buffer":0,"byteOffset":143336,"byteLength":7500},{"buffer":0,"byteOffset":150836,"byteLength":10000},{"buffer":0,"byteOffset":160836,"byteLength":7500},{"buffer":0,"byteOffset":168336,"byteLength":2500},{"buffer":0,"byteOffset":170836,"byteLength":7500},{"buffer":0,"byteOffset":178336,"byteLength":10000},{"buffer":0,"byteOffset":188336,"byteLength":7500},{"buffer":0,"byteOffset":195836,"byteLength":2500},{"buffer":0,"byteOffset":198336,"byteLength":7500},{"buffer":0,"byteOffset":205836,"byteLength":10000},{"buffer":0,"byteOffset":215836,"byteLength":7500},{"buffer":0,"byteOffset":223336,"byteLength":2500},{"buffer":0,"byteOffset":225836,"byteLength":7500},{"buffer":0,"byteOffset":233336,"byteLength":10000},{"buffer":0,"byteOffset":243336,"byteLength":7500},{"buffer":0,"byteOffset":250836,"byteLength":2500},{"buffer":0,"byteOffset":253336,"byteLength":7500},{"buffer":0,"byteOffset":260836,"byteLength":10000},{"buffer":0,"byteOffset":270836,"byteLength":7500},{"buffer":0,"byteOffset":278336,"byteLength":2500},{"buffer":0,"byteOffset":280836,"byteLength":7500},{"buffer":0,"byteOffset":288336,"byteLength":10000},{"buffer":0,"byteOffset":298336,"byteLength":7500},{"buffer":0,"byteOffset":305836,"byteLength":2500},{"buffer":0,"byteOffset":308336,"byteLength":7500},{"buffer":0,"byteOffset":315836,"byteLength":10000},{"buffer":0,"byteOffset":325836,"byteLength":7500},{"buffer":0,"byteOffset":333336,"byteLength":2500},{"buffer":0,"byteOffset":335836,"byteLength":7500},{"buffer":0,"byteOffset":343336,"byteLength":10000},{"buffer":0,"byteOffset":353336,"byteLength":7500},{"buffer":0,"byteOffset":360836,"byteLength":2500},{"buffer":0,"byteOffset":363336,"byteLength":7500},{"buffer":0,"byteOffset":370836,"byteLength":10000},{"buffer":0,"byteOffset":380836,"byteLength":7500},{"buffer":0,"byteOffset":388336,"byteLength":2500},{"buffer":0,"byteOffset":390836,"byteLength":7500},{"buffer":0,"byteOffset":398336,"byteLength":10000},{"buffer":0,"byteOffset":408336,"byteLength":7500},{"buffer":0,"byteOffset":415836,"byteLength":2500},{"buffer":0,"byteOffset":418336,"byteLength":7500},{"buffer":0,"byteOffset":425836,"byteLength":10000},{"buffer":0,"byteOffset":435836,"byteLength":7500},{"buffer":0,"byteOffset":443336,"byteLength":2500},{"buffer":0,"byteOffset":445836,"byteLength":7500},{"buffer":0,"byteOffset":453336,"byteLength":10000},{"buffer":0,"byteOffset":463336,"byteLength":7500},{"buffer":0,"byteOffset":470836,"byteLength":2500},{"buffer":0,"byteOffset":473336,"byteLength":7500},{"buffer":0,"byteOffset":480836,"byteLength":10000},{"buffer":0,"byteOffset":490836,"byteLength":7500},{"buffer":0,"byteOffset":498336,"byteLength":2500},{"buffer":0,"byteOffset":500836,"byteLength":7500},{"buffer":0,"byteOffset":508336,"byteLength":10000},{"buffer":0,"byteOffset":518336,"byteLength":7500},{"buffer":0,"byteOffset":525836,"byteLength":2500},{"buffer":0,"byteOffset":528336,"byteLength":7500},{"buffer":0,"byteOffset":535836,"byteLength":10000},{"buffer":0,"byteOffset":545836,"byteLength":7500},{"buffer":0,"byteOffset":553336,"byteLength":2500},{"buffer":0,"byteOffset":555836,"byteLength":7500},{"buffer":0,"byteOffset":563336,"byteLength":10000},{"buffer":0,"byteOffset":573336,"byteLength":7500},{"buffer":0,"byteOffset":580836,"byteLength":2500},{"buffer":0,"byteOffset":583336,"byteLength":7500},{"buffer":0,"byteOffset":590836,"byteLength":10000},{"buffer":0,"byteOffset":600836,"byteLength":7500},{"buffer":0,"byteOffset":608336,"byteLength":2500},{"buffer":0,"byteOffset":610836,"byteLength":7500},{"buffer":0,"byteOffset":618336,"byteLength":10000},{"buffer":0,"byteOffset":628336,"byteLength":7500},{"buffer":0,"byteOffset":635836,"byteLength":2500},{"buffer":0,"byteOffset":638336,"byteLength":7500},{"buffer":0,"byteOffset":645836,"byteLength":10000},{"buffer":0,"byteOffset":655836,"byteLength":7500},{"buffer":0,"byteOffset":663336,"byteLength":2500},{"buffer":0,"byteOffset":665836,"byteLength":7500},{"buffer":0,"byteOffset":673336,"byteLength":10000},{"buffer":0,"byteOffset":683336,"byteLength":7500},{"buffer":0,"byteOffset":690836,"byteLength":2500},{"buffer":0,"byteOffset":693336,"byteLength":7500},{"buffer":0,"byteOffset":700836,"byteLength":10000},{"buffer":0,"byteOffset":710836,"byteLength":7500},{"buffer":0,"byteOffset":718336,"byteLength":2500},{"buffer":0,"byteOffset":720836,"byteLength":7500},{"buffer":0,"byteOffset":728336,"byteLength":10000},{"buffer":0,"byteOffset":738336,"byteLength":7500},{"buffer":0,"byteOffset":745836,"byteLength":2500},{"buffer":0,"byteOffset":748336,"byteLength":7500},{"buffer":0,"byteOffset":755836,"byteLength":10000},{"buffer":0,"byteOffset":765836,"byteLength":7500},{"buffer":0,"byteOffset":773336,"byteLength":2500},{"buffer":0,"byteOffset":775836,"byteLength":7500},{"buffer":0,"byteOffset":783336,"byteLength":10000},{"buffer":0,"byteOffset":793336,"byteLength":7500},{"buffer":0,"byteOffset":800836,"byteLength":2500},{"buffer":0,"byteOffset":803336,"byteLength":7500},{"buffer":0,"byteOffset":810836,"byteLength":10000},{"buffer":0,"byteOffset":820836,"byteLength":7500},{"buffer":0,"byteOffset":828336,"byteLength":2500},{"buffer":0,"byteOffset":830836,"byteLength":7500},{"buffer":0,"byteOffset":838336,"byteLength":10000},{"buffer":0,"byteOffset":848336,"byteLength":7500},{"buffer":0,"byteOffset":855836,"byteLength":2500},{"buffer":0,"byteOffset":858336,"byteLength":7500},{"buffer":0,"byteOffset":865836,"byteLength":10000},{"buffer":0,"byteOffset":875836,"byteLength":7500},{"buffer":0,"byteOffset":883336,"byteLength":2500},{"buffer":0,"byteOffset":885836,"byteLength":7500},{"buffer":0,"byteOffset":893336,"byteLength":10000},{"buffer":0,"byteOffset":903336,"byteLength":7500},{"buffer":0,"byteOffset":910836,"byteLength":2500},{"buffer":0,"byteOffset":913336,"byteLength":7500},{"buffer":0,"byteOffset":920836,"byteLength":10000},{"buffer":0,"byteOffset":930836,"byteLength":7500},{"buffer":0,"byteOffset":938336,"byteLength":2500},{"buffer":0,"byteOffset":940836,"byteLength":7500},{"buffer":0,"byteOffset":948336,"byteLength":10000},{"buffer":0,"byteOffset":958336,"byteLength":7500},{"buffer":0,"byteOffset":965836,"byteLength":2500},{"buffer":0,"byteOffset":968336,"byteLength":7500},{"buffer":0,"byteOffset":975836,"byteLength":10000},{"buffer":0,"byteOffset":985836,"byteLength":7500},{"buffer":0,"byteOffset":993336,"byteLength":2500},{"buffer":0,"byteOffset":995836,"byteLength":7500},{"buffer":0,"byteOffset":1003336,"byteLength":10000},{"buffer":0,"byteOffset":1013336,"byteLength":7500},{"buffer":0,"byteOffset":1020836,"byteLength":2500},{"buffer":0,"byteOffset":1023336,"byteLength":7500},{"buffer":0,"byteOffset":1030836,"byteLength":10000},{"buffer":0,"byteOffset":1040836,"byteLength":7500},{"buffer":0,"byteOffset":1048336,"byteLength":2500},{"buffer":0,"byteOffset":1050836,"byteLength":7500},{"buffer":0,"byteOffset":1058336,"byteLength":10000},{"buffer":0,"byteOffset":1068336,"byteLength":7500},{"buffer":0,"byteOffset":1075836,"byteLength":2500},{"buffer":0,"byteOffset":1078336,"byteLength":7500},{"buffer":0,"byteOffset":1085836,"byteLength":10000},{"buffer":0,"byteOffset":1095836,"byteLength":7500},{"buffer":0,"byteOffset":1103336,"byteLength":2500},{"buffer":0,"byteOffset":1105836,"byteLength":7500},{"buffer":0,"byteOffset":1113336,"byteLength":10000},{"buffer":0,"byteOffset":1123336,"byteLength":7500},{"buffer":0,"byteOffset":1130836,"byteLength":2500},{"buffer":0,"byteOffset":1133336,"byteLength":7500},{"buffer":0,"byteOffset":1140836,"byteLength":10000},{"buffer":0,"byteOffset":1150836,"byteLength":7500},{"buffer":0,"byteOffset":1158336,"byteLength":2500},{"buffer":0,"byteOffset":1160836,"byteLength":7500},{"buffer":0,"byteOffset":1168336,"byteLength":10000},{"buffer":0,"byteOffset":1178336,"byteLength":7500},{"buffer":0,"byteOffset":1185836,"byteLength":2500},{"buffer":0,"byteOffset":1188336,"byteLength":7500},{"buffer":0,"byteOffset":1195836,"byteLength":10000},{"buffer":0,"byteOffset":1205836,"byteLength":7500},{"buffer":0,"byteOffset":1213336,"byteLength":2500},{"buffer":0,"byteOffset":1215836,"byteLength":7500},{"buffer":0,"byteOffset":1223336,"byteLength":10000},{"buffer":0,"byteOffset":1233336,"byteLength":7500},{"buffer":0,"byteOffset":1240836,"byteLength":2500},{"buffer":0,"byteOffset":1243336,"byteLength":7500},{"buffer":0,"byteOffset":1250836,"byteLength":10000},{"buffer":0,"byteOffset":1260836,"byteLength":7500},{"buffer":0,"byteOffset":1268336,"byteLength":2500},{"buffer":0,"byteOffset":1270836,"byteLength":7500},{"buffer":0,"byteOffset":1278336,"byteLength":10000},{"buffer":0,"byteOffset":1288336,"byteLength":7500},{"buffer":0,"byteOffset":1295836,"byteLength":2500},{"buffer":0,"byteOffset":1298336,"byteLength":7500},{"buffer":0,"byteOffset":1305836,"byteLength":10000},{"buffer":0,"byteOffset":1315836,"byteLength":7500},{"buffer":0,"byteOffset":1323336,"byteLength":2500},{"buffer":0,"byteOffset":1325836,"byteLength":7500},{"buffer":0,"byteOffset":1333336,"byteLength":10000},{"buffer":0,"byteOffset":1343336,"byteLength":7500},{"buffer":0,"byteOffset":1350836,"byteLength":2500},{"buffer":0,"byteOffset":1353336,"byteLength":7500},{"buffer":0,"byteOffset":1360836,"byteLength":10000},{"buffer":0,"byteOffset":1370836,"byteLength":7500},{"buffer":0,"byteOffset":1378336,"byteLength":2500},{"buffer":0,"byteOffset":1380836,"byteLength":7500},{"buffer":0,"byteOffset":1388336,"byteLength":10000},{"buffer":0,"byteOffset":1398336,"byteLength":7500},{"buffer":0,"byteOffset":1405836,"byteLength":2500},{"buffer":0,"byteOffset":1408336,"byteLength":7500},{"buffer":0,"byteOffset":1415836,"byteLength":10000},{"buffer":0,"byteOffset":1425836,"byteLength":7500},{"buffer":0,"byteOffset":1433336,"byteLength":2500},{"buffer":0,"byteOffset":1435836,"byteLength":7500},{"buffer":0,"byteOffset":1443336,"byteLength":10000},{"buffer":0,"byteOffset":1453336,"byteLength":7500}],"materials":[{"alphaMode":"BLEND","name":"xingguang"},{"alphaMode":"BLEND","name":"guangshu"},{"alphaMode":"BLEND","name":"guangshushu1"},{"alphaMode":"BLEND","name":"yuanhuan"}],"meshes":[{"primitives":[{"attributes":{"POSITION":0,"NORMAL":1,"TANGENT":2,"TEXCOORD_0":3},"indices":4,"material":0}],"name":"Quad"},{"primitives":[{"attributes":{"POSITION":5,"NORMAL":6,"TANGENT":7,"TEXCOORD_0":8},"indices":9,"material":1}],"name":"shu"},{"primitives":[{"attributes":{"POSITION":10,"NORMAL":11,"TANGENT":12,"TEXCOORD_0":13},"indices":14,"material":2}],"name":"jianbian1"},{"primitives":[{"attributes":{"POSITION":15,"NORMAL":16,"TANGENT":17,"TEXCOORD_0":18},"indices":19,"material":3}],"name":"xuanwo"}],"nodes":[{"children":[1,2,3,4,5,6,7,8,9,10,11,12,13,14,15,16,17,18,19,20,21,22,23,24,25,26,27,28,29,30,31,32,33,34,35,36,37,38,39,40,41,42,43,44,45,46,47,48,49,50,51,52,53,54],"rotation":[0.0,0.0,0.0,-1.0],"name":"Xingguang"},{"mesh":0,"rotation":[0.0,0.0,0.0,-1.0],"scale":[0.013549,0.013549,0.013549],"name":"Quad"},{"mesh":0,"rotation":[0.0,0.0,0.0,-1.0],"scale":[0.013549,0.013549,0.013549],"translation":[0.0062,0.0,-0.0268],"name":"Quad (2)"},{"mesh":0,"rotation":[0.0,0.0,0.0,-1.0],"scale":[0.013549,0.013549,0.013549],"translation":[-0.0148,0.0,-0.0291],"name":"Quad (3)"},{"mesh":0,"rotation":[0.0,0.0,0.0,-1.0],"scale":[0.013549,0.013549,0.013549],"translation":[-0.0267,0.0,-0.0091],"name":"Quad (4)"},{"mesh":0,"rotation":[0.0,0.0,0.0,-1.0],"scale":[0.013549,0.013549,0.013549],"translation":[-0.0251,0.0,0.0106],"name":"Quad (5)"},{"mesh":0,"rotation":[0.0,0.0,0.0,-1.0],"scale":[0.013549,0.013549,0.013549],"translation":[0.0231,0.0,-0.0122],"name":"Quad (6)"},{"mesh":0,"rotation":[0.0,0.0,0.0,-1.0],"scale":[0.013549,0.013549,0.013549],"translation":[0.0227,0.0,0.0062],"name":"Quad (7)"},{"mesh":0,"rotation":[0.0,0.0,0.0,-1.0],"scale":[0.013549,0.013549,0.013549],"translation":[-0.0073,0.0,0.0106],"name":"Quad (8)"},{"mesh":0,"rotation":[0.0,0.0,0.0,-1.0],"scale":[0.013549,0.013549,0.013549],"translation":[0.009,0.0,0.0159],"name":"Quad (9)"},{"mesh":0,"rotation":[0.0,0.0,0.0,-1.0],"scale":[0.013549,0.013549,0.013549],"translation":[0.0242,0.0,-0.032],"name":"Quad (10)"},{"mesh":0,"rotation":[0.0,0.0,0.0,-1.0],"scale":[0.013549,0.013549,0.013549],"translation":[-0.0011,0.0,-0.0469],"name":"Quad (11)"},{"mesh":0,"rotation":[0.0,0.0,0.0,-1.0],"scale":[0.013549,0.013549,0.013549],"translation":[-0.0303,0.0,-0.0295],"name":"Quad (12)"},{"mesh":0,"rotation":[0.0,0.0,0.0,-1.0],"scale":[0.013549,0.013549,0.013549],"translation":[-0.0447,0.0,-0.0049],"name":"Quad (13)"},{"mesh":0,"rotation":[0.0,0.0,0.0,-1.0],"scale":[0.013549,0.013549,0.013549],"translation":[-0.0428,0.0,0.0096],"name":"Quad (14)"},{"mesh":0,"rotation":[0.0,0.0,0.0,-1.0],"scale":[0.013549,0.013549,0.013549],"translation":[-0.0297,0.0,0.0174],"name":"Quad (15)"},{"mesh":0,"rotation":[0.0,0.0,0.0,-1.0],"scale":[0.013549,0.013549,0.013549],"translation":[-0.0158,0.0,0.0253],"name":"Quad (16)"},{"mesh":0,"rotation":[0.0,0.0,0.0,-1.0],"scale":[0.013549,0.013549,0.013549],"translation":[0.0185,0.0,0.0266],"name":"Quad (17)"},{"mesh":0,"rotation":[0.0,0.0,0.0,-1.0],"scale":[0.013549,0.013549,0.013549],"translation":[-0.0017,0.0,0.0266],"name":"Quad (18)"},{"mesh":0,"rotation":[0.0,0.0,0.0,-1.0],"scale":[0.013549,0.013549,0.013549],"translation":[0.0354,0.0,0.0122],"name":"Quad (19)"},{"mesh":0,"rotation":[0.0,0.0,0.0,-1.0],"scale":[0.013549,0.013549,0.013549],"translation":[0.0428,0.0,-0.008],"name":"Quad (20)"},{"mesh":0,"rotation":[0.0,0.0,0.0,-1.0],"scale":[0.013549,0.013549,0.013549],"translation":[0.0468,0.0,-0.0325],"name":"Quad (21)"},{"mesh":0,"rotation":[0.0,0.0,0.0,-1.0],"scale":[0.013549,0.013549,0.013549],"translation":[0.0199,0.0,-0.0575],"name":"Quad (22)"},{"mesh":0,"rotation":[0.0,0.0,0.0,-1.0],"scale":[0.013549,0.013549,0.013549],"translation":[-0.0214,0.0,-0.0496],"name":"Quad (23)"},{"mesh":0,"rotation":[0.0,0.0,0.0,-1.0],"scale":[0.013549,0.013549,0.013549],"translation":[-0.0427,0.0,-0.0314],"name":"Quad (24)"},{"mesh":1,"rotation":[0.0,0.0,0.0,-1.0],"scale":[0.013549,0.013549,0.013549],"translation":[0.0279,0.0,-0.0581],"name":"shu"},{"mesh":1,"rotation":[0.0,0.0,0.0,-1.0],"scale":[0.013549,0.013549,0.013549],"translation":[0.0107,0.0,-0.0597],"name":"shu (1)"},{"mesh":1,"rotation":[0.0,0.0,0.0,-1.0],"scale":[0.013549,0.013549,0.013549],"translation":[0.0408,0.0,-0.0529],"name":"shu (2)"},{"mesh":1,"rotation":[0.0,0.0,0.0,-1.0],"scale":[0.013549,0.013549,0.013549],"translation":[0.0568,0.0,-0.0349],"name":"shu (3)"},{"mesh":1,"rotation":[0.0,0.0,0.0,-1.0],"scale":[0.013549,0.013549,0.013549],"translation":[0.0631,0.0,-0.0125],"name":"shu (4)"},{"mesh":1,"rotation":[0.0,0.0,0.0,-1.0],"scale":[0.013549,0.013549,0.013549],"translation":[0.0631,0.0,0.005],"name":"shu (5)"},{"mesh":1,"rotation":[0.0,0.0,0.0,-1.0],"scale":[0.013549,0.013549,0.013549],"translation":[0.0582,0.0,0.0317],"name":"shu (6)"},{"mesh":1,"rotation":[0.0,0.0,0.0,-1.0],"scale":[0.013549,0.013549,0.013549],"translation":[0.0402,0.0,0.0419],"name":"shu (7)"},{"mesh":1,"rotation":[0.0,0.0,0.0,-1.0],"scale":[0.013549,0.013549,0.013549],"translation":[0.0208,0.0,0.0463],"name":"shu (8)"},{"mesh":1,"rotation":[0.0,0.0,0.0,-1.0],"scale":[0.013549,0.013549,0.013549],"translation":[-0.002000002,0.0,0.0468],"name":"shu (9)"},{"mesh":1,"rotation":[0.0,0.0,0.0,-1.0],"scale":[0.013549,0.013549,0.013549],"translation":[-0.0229,0.0,0.0434],"name":"shu (10)"},{"mesh":1,"rotation":[0.0,0.0,0.0,-1.0],"scale":[0.013549,0.013549,0.013549],"translation":[-0.0385,0.0,0.0347],"name":"shu (11)"},{"mesh":1,"rotation":[0.0,0.0,0.0,-1.0],"scale":[0.013549,0.013549,0.013549],"translation":[-0.0516,0.0,0.0191],"name":"shu (12)"},{"mesh":1,"rotation":[0.0,0.0,0.0,-1.0],"scale":[0.013549,0.013549,0.013549],"translation":[-0.0516,0.0,0.0191],"name":"shu (13)"},{"mesh":1,"rotation":[0.0,0.0,0.0,-1.0],"scale":[0.013549,0.013549,0.013549],"translation":[-0.0574,0.0,0.0011],"name":"shu (14)"},{"mesh":1,"rotation":[0.0,0.0,0.0,-1.0],"scale":[0.013549,0.013549,0.013549],"translation":[-0.0579,0.0,-0.013],"name":"shu (15)"},{"mesh":1,"rotation":[0.0,0.0,0.0,-1.0],"scale":[0.013549,0.013549,0.013549],"translation":[-0.05600001,0.0,-0.0261],"name":"shu (16)"},{"mesh":1,"rotation":[0.0,0.0,0.0,-1.0],"scale":[0.013549,0.013549,0.013549],"translation":[-0.0492,0.0,-0.0417],"name":"shu (17)"},{"mesh":1,"rotation":[0.0,0.0,0.0,-1.0],"scale":[0.013549,0.013549,0.013549],"translation":[-0.0361,0.0,-0.0534],"name":"shu (18)"},{"mesh":1,"rotation":[0.0,0.0,0.0,-1.0],"scale":[0.013549,0.013549,0.013549],"translation":[-0.0239,0.0,-0.0553],"name":"shu (19)"},{"mesh":1,"rotation":[0.0,0.0,0.0,-1.0],"scale":[0.013549,0.013549,0.013549],"translation":[-0.006400002,0.0,-0.0611],"name":"shu (20)"},{"mesh":1,"rotation":[0.0,0.0,0.0,-1.0],"scale":[0.013549,0.013549,0.013549],"translation":[-0.006400002,0.0,-0.0611],"name":"shu (21)"},{"mesh":1,"rotation":[0.0,0.0,0.0,-1.0],"scale":[0.013549,0.013549,0.013549],"translation":[0.0228,0.0,0.0473],"name":"shu (22)"},{"rotation":[0.7071068,0.0,0.0,-0.7071068],"scale":[1.2361778,1.2361778,1.2361778],"translation":[0.0438,0.0861,-0.0017],"name":"xuanwo (1)"},{"mesh":2,"rotation":[-0.6759983,-0.207428083,0.207428083,-0.6759983],"scale":[0.505098,0.505098,0.6813772],"name":"jianbian1"},{"mesh":3,"rotation":[0.7071068,0.0,0.0,-0.7071068],"scale":[0.17353,0.17353,0.17353],"translation":[0.0,0.0119,0.0],"name":"xuanwo"},{"mesh":3,"rotation":[0.7071068,0.0,0.0,-0.7071068],"scale":[0.17353,0.17353,0.17353],"translation":[0.0,0.0119,0.0],"name":"xuanwo (2)"},{"mesh":3,"rotation":[0.7071068,0.0,0.0,-0.7071068],"scale":[0.17353,0.17353,0.17353],"translation":[0.0,0.0119,0.0],"name":"xuanwo (3)"},{"mesh":2,"rotation":[-0.7071068,0.0,0.0,-0.7071068],"scale":[0.505098,0.505098,0.6813772],"name":"jianbian1 (1)"},{"mesh":2,"rotation":[-0.7071068,0.0,0.0,-0.7071068],"scale":[0.505098,0.505098,0.6813772],"name":"jianbian1 (2)"}],"scene":0,"scenes":[{"nodes":[0],"name":"Unity2Skfb"}]}